<svg width="17" height="17" viewBox="0 0 17 17" fill="none" xmlns="http://www.w3.org/2000/svg">
<path d="M5.20646 0.702637C2.71918 0.702637 0.702148 2.71967 0.702148 5.20695V12.4138C0.702148 14.9011 2.71918 16.9182 5.20646 16.9182H12.4134C14.9006 16.9182 16.9177 14.9011 16.9177 12.4138V5.20695C16.9177 2.71967 14.9006 0.702637 12.4134 0.702637H5.20646ZM14.2151 2.50436C14.7124 2.50436 15.1159 2.90795 15.1159 3.40522C15.1159 3.9025 14.7124 4.30608 14.2151 4.30608C13.7178 4.30608 13.3142 3.9025 13.3142 3.40522C13.3142 2.90795 13.7178 2.50436 14.2151 2.50436ZM8.80991 4.30608C11.2972 4.30608 13.3142 6.32311 13.3142 8.8104C13.3142 11.2977 11.2972 13.3147 8.80991 13.3147C6.32263 13.3147 4.3056 11.2977 4.3056 8.8104C4.3056 6.32311 6.32263 4.30608 8.80991 4.30608ZM8.80991 6.10781C8.09314 6.10781 7.40572 6.39254 6.89889 6.89938C6.39206 7.40621 6.10732 8.09362 6.10732 8.8104C6.10732 9.52717 6.39206 10.2146 6.89889 10.7214C7.40572 11.2282 8.09314 11.513 8.80991 11.513C9.52668 11.513 10.2141 11.2282 10.7209 10.7214C11.2278 10.2146 11.5125 9.52717 11.5125 8.8104C11.5125 8.09362 11.2278 7.40621 10.7209 6.89938C10.2141 6.39254 9.52668 6.10781 8.80991 6.10781Z" fill="white"/>
</svg>
